<mxfile host="www.draw.io" modified="2019-11-26T01:15:29.976Z" agent="Mozilla/5.0 (Macintosh; Intel Mac OS X 10_14_6) AppleWebKit/537.36 (KHTML, like Gecko) Chrome/78.0.3904.108 Safari/537.36" etag="VEtGtyPzAhtuKCkqeuzJ" version="12.3.0" type="github" pages="1">
  <diagram id="f25Wr2QI4GVEpHFz4Gb7" name="Page-1">
    <mxGraphModel dx="946" dy="542" grid="1" gridSize="10" guides="1" tooltips="1" connect="1" arrows="1" fold="1" page="1" pageScale="1" pageWidth="827" pageHeight="1169" math="0" shadow="0">
      <root>
        <mxCell id="0"/>
        <mxCell id="1" parent="0"/>
        <mxCell id="pMappQF-4qJ4HOfABm6f-1" value="" style="endArrow=none;html=1;" edge="1" parent="1">
          <mxGeometry width="50" height="50" relative="1" as="geometry">
            <mxPoint x="40" y="80" as="sourcePoint"/>
            <mxPoint x="680" y="80" as="targetPoint"/>
          </mxGeometry>
        </mxCell>
        <mxCell id="pMappQF-4qJ4HOfABm6f-2" value="2019/12" style="text;html=1;resizable=0;autosize=1;align=center;verticalAlign=middle;points=[];fillColor=none;strokeColor=none;rounded=0;" vertex="1" parent="1">
          <mxGeometry x="50" y="50" width="60" height="20" as="geometry"/>
        </mxCell>
        <mxCell id="pMappQF-4qJ4HOfABm6f-3" value="2020/1" style="text;html=1;resizable=0;autosize=1;align=center;verticalAlign=middle;points=[];fillColor=none;strokeColor=none;rounded=0;" vertex="1" parent="1">
          <mxGeometry x="140" y="50" width="50" height="20" as="geometry"/>
        </mxCell>
        <mxCell id="pMappQF-4qJ4HOfABm6f-4" value="2020/4&lt;br&gt;" style="text;html=1;resizable=0;autosize=1;align=center;verticalAlign=middle;points=[];fillColor=none;strokeColor=none;rounded=0;" vertex="1" parent="1">
          <mxGeometry x="380" y="50" width="50" height="20" as="geometry"/>
        </mxCell>
        <mxCell id="pMappQF-4qJ4HOfABm6f-5" value="2020/6" style="text;html=1;resizable=0;autosize=1;align=center;verticalAlign=middle;points=[];fillColor=none;strokeColor=none;rounded=0;" vertex="1" parent="1">
          <mxGeometry x="540" y="50" width="50" height="20" as="geometry"/>
        </mxCell>
        <mxCell id="pMappQF-4qJ4HOfABm6f-6" value="技術検証" style="html=1;shadow=0;dashed=0;align=center;verticalAlign=middle;shape=mxgraph.arrows2.arrow;dy=0;dx=10;notch=0;" vertex="1" parent="1">
          <mxGeometry x="80" y="100" width="90" height="30" as="geometry"/>
        </mxCell>
        <mxCell id="pMappQF-4qJ4HOfABm6f-7" value="収集基盤構築" style="html=1;shadow=0;dashed=0;align=center;verticalAlign=middle;shape=mxgraph.arrows2.arrow;dy=0;dx=10;notch=0;" vertex="1" parent="1">
          <mxGeometry x="125" y="186" width="90" height="30" as="geometry"/>
        </mxCell>
        <mxCell id="pMappQF-4qJ4HOfABm6f-8" value="データ収集ジョブ" style="html=1;shadow=0;dashed=0;align=center;verticalAlign=middle;shape=mxgraph.arrows2.arrow;dy=0;dx=10;notch=0;" vertex="1" parent="1">
          <mxGeometry x="150" y="229" width="115" height="30" as="geometry"/>
        </mxCell>
        <mxCell id="pMappQF-4qJ4HOfABm6f-9" value="データ整形ジョブ" style="html=1;shadow=0;dashed=0;align=center;verticalAlign=middle;shape=mxgraph.arrows2.arrow;dy=0;dx=10;notch=0;" vertex="1" parent="1">
          <mxGeometry x="150" y="271" width="115" height="30" as="geometry"/>
        </mxCell>
        <mxCell id="pMappQF-4qJ4HOfABm6f-11" value="現環境修正" style="html=1;shadow=0;dashed=0;align=center;verticalAlign=middle;shape=mxgraph.arrows2.arrow;dy=0;dx=10;notch=0;" vertex="1" parent="1">
          <mxGeometry x="80" y="143" width="90" height="30" as="geometry"/>
        </mxCell>
        <mxCell id="pMappQF-4qJ4HOfABm6f-12" value="" style="strokeWidth=2;html=1;shape=mxgraph.flowchart.annotation_2;align=left;labelPosition=right;pointerEvents=1;direction=west;dashed=1;strokeColor=#3333FF;" vertex="1" parent="1">
          <mxGeometry x="280" y="194" width="50" height="100" as="geometry"/>
        </mxCell>
        <mxCell id="pMappQF-4qJ4HOfABm6f-14" value="一部のDaraSourceに限定" style="text;html=1;resizable=0;autosize=1;align=center;verticalAlign=middle;points=[];fillColor=none;strokeColor=none;rounded=0;fontColor=#3333FF;" vertex="1" parent="1">
          <mxGeometry x="338" y="234" width="150" height="20" as="geometry"/>
        </mxCell>
        <mxCell id="pMappQF-4qJ4HOfABm6f-15" value="収集データ追加" style="html=1;shadow=0;dashed=0;align=center;verticalAlign=middle;shape=mxgraph.arrows2.arrow;dy=0;dx=10;notch=0;" vertex="1" parent="1">
          <mxGeometry x="265" y="320" width="90" height="30" as="geometry"/>
        </mxCell>
        <mxCell id="pMappQF-4qJ4HOfABm6f-16" value="BI構築" style="html=1;shadow=0;dashed=0;align=center;verticalAlign=middle;shape=mxgraph.arrows2.arrow;dy=0;dx=10;notch=0;" vertex="1" parent="1">
          <mxGeometry x="355" y="400" width="90" height="30" as="geometry"/>
        </mxCell>
        <mxCell id="pMappQF-4qJ4HOfABm6f-17" value="データ整形ジョブ" style="html=1;shadow=0;dashed=0;align=center;verticalAlign=middle;shape=mxgraph.arrows2.arrow;dy=0;dx=10;notch=0;" vertex="1" parent="1">
          <mxGeometry x="280" y="360" width="115" height="30" as="geometry"/>
        </mxCell>
        <mxCell id="pMappQF-4qJ4HOfABm6f-18" value="" style="endArrow=none;html=1;strokeColor=#FF0000;" edge="1" parent="1">
          <mxGeometry width="50" height="50" relative="1" as="geometry">
            <mxPoint x="260" y="90" as="sourcePoint"/>
            <mxPoint x="260" y="40" as="targetPoint"/>
          </mxGeometry>
        </mxCell>
        <mxCell id="pMappQF-4qJ4HOfABm6f-19" value="一部データ収集" style="text;html=1;resizable=0;autosize=1;align=center;verticalAlign=middle;points=[];fillColor=none;strokeColor=none;rounded=0;fontColor=#FF0000;fontStyle=1" vertex="1" parent="1">
          <mxGeometry x="210" y="20" width="100" height="20" as="geometry"/>
        </mxCell>
        <mxCell id="pMappQF-4qJ4HOfABm6f-20" value="非会員データ" style="html=1;shadow=0;dashed=1;align=center;verticalAlign=middle;shape=mxgraph.arrows2.arrow;dy=0;dx=10;notch=0;" vertex="1" parent="1">
          <mxGeometry x="475" y="450" width="175" height="30" as="geometry"/>
        </mxCell>
        <mxCell id="pMappQF-4qJ4HOfABm6f-21" value="" style="endArrow=none;html=1;strokeColor=#FF0000;" edge="1" parent="1">
          <mxGeometry width="50" height="50" relative="1" as="geometry">
            <mxPoint x="463" y="90" as="sourcePoint"/>
            <mxPoint x="463" y="40" as="targetPoint"/>
          </mxGeometry>
        </mxCell>
        <mxCell id="pMappQF-4qJ4HOfABm6f-22" value="会員データ分析基盤" style="text;html=1;resizable=0;autosize=1;align=center;verticalAlign=middle;points=[];fillColor=none;strokeColor=none;rounded=0;fontColor=#FF0000;fontStyle=1" vertex="1" parent="1">
          <mxGeometry x="403" y="20" width="120" height="20" as="geometry"/>
        </mxCell>
        <mxCell id="pMappQF-4qJ4HOfABm6f-25" value="" style="strokeWidth=2;html=1;shape=mxgraph.flowchart.annotation_2;align=left;labelPosition=right;pointerEvents=1;direction=west;dashed=1;strokeColor=#3333FF;" vertex="1" parent="1">
          <mxGeometry x="413" y="322" width="50" height="70" as="geometry"/>
        </mxCell>
        <mxCell id="pMappQF-4qJ4HOfABm6f-26" value="収集対象の会員データ追加" style="text;html=1;resizable=0;autosize=1;align=center;verticalAlign=middle;points=[];fillColor=none;strokeColor=none;rounded=0;fontColor=#3333FF;" vertex="1" parent="1">
          <mxGeometry x="470" y="347" width="160" height="20" as="geometry"/>
        </mxCell>
      </root>
    </mxGraphModel>
  </diagram>
</mxfile>
